<?xml version="1.0"?>
<svg xmlns="http://www.w3.org/2000/svg" version="1" viewBox="0 0 24 24" enable-background="new 0 0 24 24">
    <path d="M 4.375 5.125 C 4.375 5.125 2 8.4925926 2 12.5 C 2 15.533333 4.4666667 18 7.5 18 C 9.3561231 18 11.003558 17.068125 12 15.65625 C 12.996442 17.068125 14.643877 18 16.5 18 C 19.533333 18 22 15.533333 22 12.5 C 22 8.4925926 19.625 5.125 19.625 5.125 L 17.96875 6.28125 C 17.96875 6.28125 20 9.3074074 20 12.5 C 20 14.466667 18.466667 16 16.5 16 C 14.533333 16 13 14.466667 13 12.5 C 13 11.633333 13.33775 9.9350833 13.59375 9.59375 L 12 8.40625 L 10.40625 9.59375 C 10.66225 9.9350833 11 11.633333 11 12.5 C 11 14.466667 9.4666667 16 7.5 16 C 5.5333333 16 4 14.466667 4 12.5 C 4 9.3074074 6.03125 6.28125 6.03125 6.28125 L 4.375 5.125 z M 7.5 12 C 6.6715729 12 6 12.671573 6 13.5 C 6 14.328427 6.6715729 15 7.5 15 C 8.3284271 15 9 14.328427 9 13.5 C 9 12.671573 8.3284271 12 7.5 12 z M 16.5 12 C 15.671573 12 15 12.671573 15 13.5 C 15 14.328427 15.671573 15 16.5 15 C 17.328427 15 18 14.328427 18 13.5 C 18 12.671573 17.328427 12 16.5 12 z"/>
</svg>
